# Blender 4.0.2
# www.blender.org
mtllib 3DProgPlayer.mtl
o Cube.002
v -19.144835 0.674777 9.427579
v -19.144835 0.884986 9.427579
v -19.144835 0.674777 8.982085
v -19.144835 0.884986 8.982085
v -18.929369 0.674777 9.427579
v -18.929369 0.884986 9.427579
v -18.929369 0.674777 8.982085
v -18.929369 0.884986 8.982085
v -19.259850 0.000000 9.427579
v -19.152876 1.000000 9.320606
v -19.152876 1.000000 9.089058
v -19.259850 0.000000 8.982085
v -18.814354 0.000000 8.982085
v -18.921328 1.000000 9.089058
v -18.921328 1.000000 9.320606
v -18.814354 0.000000 9.427579
v -19.144835 0.674777 9.738733
v -19.144835 0.884986 9.738733
v -19.144835 0.884986 8.670931
v -19.144835 0.674777 8.670931
v -18.929369 0.674777 8.670931
v -18.929369 0.884986 8.670931
v -18.929369 0.884986 9.738733
v -18.929369 0.674777 9.738733
v -19.259850 1.000000 9.427579
v -19.259850 1.000000 8.982085
v -18.814354 1.000000 8.982085
v -18.814354 1.000000 9.427579
v -19.274456 1.088709 9.442185
v -19.274456 1.088709 8.967479
v -18.799747 1.088709 8.967479
v -18.799747 1.088709 9.442185
v -19.274456 1.508039 9.442185
v -19.274456 1.508039 8.967479
v -18.799747 1.508039 8.967479
v -18.799747 1.508039 9.442185
vn -1.0000 -0.0000 -0.0000
vn 1.0000 -0.0000 -0.0000
vn -0.0000 1.0000 -0.0000
vn -0.0000 -1.0000 -0.0000
vn 0.5894 -0.8078 -0.0000
vn -0.0000 -0.0000 1.0000
vn -0.0000 -0.0000 -1.0000
vn -0.5894 -0.8078 -0.0000
vn -0.0000 -0.8078 0.5894
vn -0.0000 -0.8078 -0.5894
vt 0.625000 0.000000
vt 0.375000 0.250000
vt 0.375000 0.000000
vt 0.596247 0.314543
vt 0.543694 0.314543
vt 0.625000 0.500000
vt 0.375000 0.750000
vt 0.375000 0.500000
vt 0.596247 0.435457
vt 0.125000 0.750000
vt 0.125000 0.500000
vt 0.685030 0.560030
vt 0.685030 0.689970
vt 0.543694 0.935457
vt 0.625000 1.000000
vt 0.375000 1.000000
vt 0.625000 0.250000
vt 0.543694 0.435457
vt 0.543694 0.814543
vt 0.625000 0.750000
vt 0.596247 0.814543
vt 0.596247 0.935457
vt 0.814970 0.560030
vt 0.875000 0.750000
vt 0.814970 0.689970
vt 0.875000 0.500000
s 0
f 25/1/1 12/2/1 9/3/1
f 4/4/1 20/5/1 3/5/1
f 27/6/2 16/7/2 13/8/2
f 8/9/3 19/4/3 4/4/3
f 13/8/4 9/10/4 12/11/4
f 14/12/5 32/13/5 15/13/5
f 1/14/6 25/15/6 9/16/6
f 3/5/7 26/17/7 4/4/7
f 3/5/7 13/8/7 12/2/7
f 8/9/7 26/17/7 27/6/7
f 7/18/7 27/6/7 13/8/7
f 5/19/6 28/20/6 6/21/6
f 5/19/6 9/16/6 16/7/6
f 2/22/6 28/20/6 25/15/6
f 19/4/7 21/18/7 20/5/7
f 23/21/6 17/14/6 24/19/6
f 5/19/4 17/14/4 1/14/4
f 7/18/2 22/9/2 8/9/2
f 3/5/4 21/18/4 7/18/4
f 1/14/1 18/22/1 2/22/1
f 2/22/3 23/21/3 6/21/3
f 6/21/2 24/19/2 5/19/2
f 11/23/3 25/24/3 10/25/3
f 14/12/3 26/26/3 11/23/3
f 15/13/3 27/6/3 14/12/3
f 10/25/3 28/20/3 15/13/3
f 32/13/6 33/25/6 29/25/6
f 10/25/8 30/23/8 11/23/8
f 15/13/9 29/25/9 10/25/9
f 11/23/10 31/12/10 14/12/10
f 34/23/3 36/13/3 35/12/3
f 30/23/7 35/12/7 31/12/7
f 31/12/2 36/13/2 32/13/2
f 29/25/1 34/23/1 30/23/1
f 25/1/1 26/17/1 12/2/1
f 4/4/1 19/4/1 20/5/1
f 27/6/2 28/20/2 16/7/2
f 8/9/3 22/9/3 19/4/3
f 13/8/4 16/7/4 9/10/4
f 14/12/5 31/12/5 32/13/5
f 1/14/6 2/22/6 25/15/6
f 3/5/7 12/2/7 26/17/7
f 3/5/7 7/18/7 13/8/7
f 8/9/7 4/4/7 26/17/7
f 7/18/7 8/9/7 27/6/7
f 5/19/6 16/7/6 28/20/6
f 5/19/6 1/14/6 9/16/6
f 2/22/6 6/21/6 28/20/6
f 19/4/7 22/9/7 21/18/7
f 23/21/6 18/22/6 17/14/6
f 5/19/4 24/19/4 17/14/4
f 7/18/2 21/18/2 22/9/2
f 3/5/4 20/5/4 21/18/4
f 1/14/1 17/14/1 18/22/1
f 2/22/3 18/22/3 23/21/3
f 6/21/2 23/21/2 24/19/2
f 11/23/3 26/26/3 25/24/3
f 14/12/3 27/6/3 26/26/3
f 15/13/3 28/20/3 27/6/3
f 10/25/3 25/24/3 28/20/3
f 32/13/6 36/13/6 33/25/6
f 10/25/8 29/25/8 30/23/8
f 15/13/9 32/13/9 29/25/9
f 11/23/10 30/23/10 31/12/10
f 34/23/3 33/25/3 36/13/3
f 30/23/7 34/23/7 35/12/7
f 31/12/2 35/12/2 36/13/2
f 29/25/1 33/25/1 34/23/1
