# Blender 4.0.2
# www.blender.org
mtllib 3DProgVegg.mtl
o Plane.010
v -3.000000 1.000000 0.500000
v -3.000000 0.000000 0.500000
v -3.000000 1.000000 -0.250000
v -3.000000 0.000000 -0.250000
v -3.000000 1.000000 -0.750000
v -3.000000 0.000000 -0.750000
v -3.000000 1.000000 -1.500000
v -3.000000 0.000000 -1.500000
v -3.000000 2.000000 0.500000
v -3.000000 1.000000 0.500000
v -3.000000 2.000000 -1.500000
v -3.000000 1.000000 -1.500000
vn 1.0000 -0.0000 -0.0000
vt 1.000000 0.000000
vt 0.000000 1.000000
vt 0.000000 0.000000
vt 1.000000 1.000000
s 0
f 2/1/1 3/2/1 1/3/1
f 6/1/1 7/2/1 5/3/1
f 10/1/1 11/2/1 9/3/1
f 2/1/1 4/4/1 3/2/1
f 6/1/1 8/4/1 7/2/1
f 10/1/1 12/4/1 11/2/1
